<?xml version="1.0" standalone="no"?>
<!DOCTYPE svg PUBLIC "-//W3C//DTD SVG 20010904//EN"
 "http://www.w3.org/TR/2001/REC-SVG-20010904/DTD/svg10.dtd">
<svg version="1.0" xmlns="http://www.w3.org/2000/svg"
 width="801.000000pt" height="801.000000pt" viewBox="0 0 801.000000 801.000000"
 preserveAspectRatio="xMidYMid meet">
<metadata>
Created by potrace 1.14, written by Peter Selinger 2001-2017
</metadata>
<g transform="translate(0.000000,801.000000) scale(0.100000,-0.100000)"
fill="#000000" stroke="none">
<path d="M3785 7939 c-708 -37 -1382 -263 -1980 -662 -101 -68 -278 -197 -295
-216 -3 -3 -34 -31 -70 -61 -268 -225 -536 -529 -735 -835 -340 -521 -531
-1044 -620 -1695 -11 -78 -21 -220 -15 -220 21 0 6915 2310 6917 2317 6 16
-291 317 -422 428 -104 88 -202 164 -295 228 -146 100 -183 124 -241 156 -24
13 -55 31 -69 41 -36 25 -334 175 -400 200 -264 104 -354 135 -513 180 -393
112 -844 162 -1262 139z m805 -507 c148 -84 239 -303 196 -470 -28 -110 -99
-188 -215 -234 -81 -33 -227 -33 -291 1 -136 70 -229 248 -218 416 8 114 58
202 148 260 36 22 146 61 190 67 49 6 146 -14 190 -40z m-933 -537 c50 -148
93 -274 95 -279 3 -7 215 57 334 101 15 6 56 -114 43 -123 -17 -10 -482 -164
-486 -160 -5 5 -233 676 -233 685 0 9 120 50 140 48 10 -1 44 -87 107 -272z
m-590 -205 c52 -151 95 -276 97 -277 1 -2 76 22 166 52 91 30 167 55 171 55 8
0 39 -86 39 -109 0 -12 -60 -36 -236 -95 -130 -43 -239 -74 -244 -70 -9 10
-222 650 -224 672 -1 16 86 52 118 49 16 -2 36 -51 113 -277z m-363 144 c10
-31 14 -60 9 -64 -4 -4 -80 -31 -168 -60 -88 -29 -167 -56 -176 -61 -15 -8
-15 -14 6 -71 12 -34 26 -63 31 -65 5 -2 83 22 174 52 90 30 167 52 171 47 11
-13 39 -104 34 -112 -3 -5 -81 -34 -174 -65 l-169 -56 30 -92 c17 -51 32 -93
33 -94 1 -2 89 26 195 62 107 36 195 65 196 65 5 0 34 -95 34 -111 0 -13 -56
-36 -255 -104 -140 -48 -260 -85 -267 -82 -15 6 -243 685 -233 695 7 7 483
170 501 171 6 1 18 -24 28 -55z m-564 -506 c63 -189 115 -347 115 -353 0 -12
-123 -57 -135 -50 -5 3 -30 69 -55 148 -26 78 -51 146 -55 151 -5 4 -64 -11
-133 -33 l-125 -42 49 -147 c27 -81 48 -153 47 -161 -4 -20 -134 -63 -146 -48
-9 11 -232 674 -232 689 0 7 117 48 140 48 11 0 27 -36 58 -130 24 -71 49
-130 55 -130 16 0 230 71 239 79 5 4 -12 67 -37 140 l-44 132 32 13 c47 19 91
34 102 35 6 1 62 -153 125 -341z m2118 135 c3 -17 -4 -26 -24 -33 -29 -12 -44
-1 -44 32 0 35 63 36 68 1z m260 1 c12 -8 22 -21 22 -28 0 -19 -50 -40 -64
-26 -15 15 -52 12 -66 -5 -14 -17 -16 -17 73 -19 59 -1 71 -4 88 -25 23 -28
24 -52 5 -90 -11 -21 -29 -32 -76 -46 -57 -17 -64 -17 -88 -3 -38 23 -41 55
-7 64 15 4 31 2 37 -4 14 -14 78 7 78 26 0 12 -11 13 -60 8 -72 -8 -94 2 -110
50 -11 32 -10 39 7 62 34 45 120 65 161 36z m-202 -169 c21 -63 35 -117 32
-120 -3 -3 -18 -7 -33 -8 -27 -2 -29 2 -66 112 -21 63 -38 116 -36 117 7 8 53
21 59 18 4 -3 24 -56 44 -119z m-291 3 c27 -12 70 -82 60 -98 -3 -4 -34 -18
-70 -30 -67 -22 -73 -28 -54 -47 14 -14 69 3 69 22 0 12 58 30 68 20 3 -2 -2
-22 -9 -42 -13 -33 -22 -40 -71 -58 -50 -17 -60 -18 -83 -5 -37 20 -64 61 -74
114 -7 38 -5 51 14 83 13 20 31 40 41 44 29 12 80 10 109 -3z m-238 -80 c10
-8 73 -180 73 -200 0 -3 -14 -11 -30 -17 -35 -12 -32 -15 -66 92 -10 31 -26
65 -37 75 -18 16 -20 16 -33 -3 -19 -26 -18 -47 8 -127 12 -37 19 -70 16 -73
-3 -3 -18 -7 -34 -8 -27 -2 -30 2 -59 82 -31 87 -45 102 -71 81 -17 -15 -12
-53 17 -139 11 -30 19 -55 19 -57 0 -4 -63 -24 -67 -21 -7 8 -73 212 -73 228
0 19 52 37 58 20 2 -7 17 0 35 15 26 22 38 25 72 21 34 -5 43 -3 53 14 23 37
85 46 119 17z m-413 -122 c20 -8 37 -25 44 -42 6 -16 23 -60 37 -97 15 -38 24
-71 21 -74 -3 -4 -22 -7 -42 -7 -19 -1 -38 -7 -42 -13 -4 -7 -29 -18 -54 -24
-46 -13 -48 -12 -73 16 -43 46 -24 101 50 141 38 20 45 38 19 48 -19 7 -54
-20 -51 -38 1 -6 -13 -12 -30 -14 -30 -3 -33 -1 -33 23 0 31 37 68 82 82 18 6
34 11 36 12 1 1 17 -5 36 -13z m-234 -86 c22 -12 87 -197 73 -211 -4 -4 -19
-10 -33 -11 -22 -3 -27 5 -55 82 -31 89 -50 106 -81 76 -17 -18 -15 -41 14
-134 17 -55 13 -65 -25 -76 -19 -6 -24 3 -61 114 l-41 121 25 9 c33 13 44 13
44 -1 0 -6 14 1 31 15 32 27 76 34 109 16z m-368 -242 c-1 -79 -5 -157 -8
-175 -8 -54 -80 -93 -112 -61 -16 16 -15 28 3 28 23 0 49 47 39 69 -9 18 -51
71 -121 151 -40 46 -41 57 -6 71 30 11 32 10 110 -87 l32 -39 -1 83 c-1 88 5
102 47 102 20 0 20 -5 17 -142z m-275 27 c14 -10 33 -50 53 -111 34 -102 33
-113 -15 -114 -16 0 -26 16 -50 87 -31 91 -53 113 -74 75 -8 -14 -4 -39 17
-100 28 -87 26 -96 -19 -107 -24 -6 -28 -3 -39 32 -36 110 -52 143 -69 143
-43 0 -45 -52 -6 -159 17 -49 11 -61 -32 -61 -18 0 -26 15 -57 108 -20 59 -36
112 -36 118 0 16 53 29 58 15 2 -7 17 0 35 15 26 22 38 25 73 21 33 -3 43 0
53 15 22 36 74 47 108 23z"/>
<path d="M4332 7317 c-43 -13 -99 -77 -108 -122 -20 -107 35 -261 115 -322 36
-28 51 -33 98 -33 66 0 112 20 152 66 43 49 51 89 36 178 -34 193 -144 281
-293 233z"/>
<path d="M3942 6248 c-14 -14 -16 -48 -3 -48 4 0 22 5 40 11 31 11 31 12 15
30 -20 22 -35 24 -52 7z"/>
<path d="M3343 5945 c-23 -10 -31 -19 -27 -29 12 -32 68 -12 62 22 -3 19 -5
20 -35 7z"/>
<path d="M6634 5020 c-123 -61 -185 -228 -177 -475 6 -165 19 -244 71 -418 20
-67 23 -90 14 -99 -17 -17 -15 -79 3 -105 8 -12 32 -32 52 -44 41 -25 83 -68
83 -84 0 -23 72 -115 112 -144 158 -112 278 -120 393 -25 112 92 207 374 191
572 -7 90 -14 143 -21 150 -2 3 -21 5 -42 6 l-37 1 -17 -60 c-10 -33 -44 -137
-76 -231 -56 -161 -88 -223 -148 -285 -28 -29 -81 -52 -106 -46 -37 9 -115 64
-135 94 -16 26 -16 27 1 38 54 31 117 110 166 207 112 224 136 435 70 629 -33
99 -42 117 -96 184 -115 145 -202 184 -301 135z m178 -167 c62 -55 95 -235 68
-371 -22 -111 -54 -227 -71 -260 -30 -59 -80 -112 -104 -112 -21 0 -27 12 -56
98 -57 170 -71 317 -45 474 24 149 133 239 208 171z"/>
<path d="M6023 4508 c-20 -26 -24 -55 -24 -153 1 -104 10 -234 18 -247 2 -5
-1 -8 -6 -8 -6 0 -11 6 -11 14 0 17 -84 112 -112 127 -30 16 -74 2 -88 -29
-11 -25 -14 -144 -5 -202 3 -14 9 -57 14 -95 6 -39 13 -79 16 -90 6 -16 3 -15
-14 5 -11 14 -21 29 -21 34 0 8 -99 218 -138 291 -38 74 -116 187 -148 215
-42 37 -61 38 -76 4 -13 -29 -1 -88 32 -159 60 -129 80 -175 80 -185 0 -5 4
-10 9 -10 5 0 12 -13 16 -30 4 -16 11 -32 15 -35 5 -3 28 -44 51 -91 23 -46
45 -86 49 -89 5 -3 11 -19 15 -35 4 -17 11 -30 16 -30 5 0 9 -5 9 -12 0 -11
109 -238 120 -248 3 -3 14 -23 25 -45 17 -35 68 -110 85 -125 3 -3 17 -20 30
-39 l23 -34 34 36 c31 34 33 41 33 108 0 40 -5 90 -11 113 -12 48 -50 185 -75
271 -9 33 -18 73 -20 88 -2 16 -6 33 -10 38 -3 5 -9 32 -13 59 -9 54 3 70 14
20 4 -16 10 -30 14 -30 4 0 13 -18 20 -40 6 -22 16 -40 20 -40 5 0 12 -12 16
-27 12 -47 83 -200 102 -221 7 -7 13 -17 13 -22 0 -18 102 -111 119 -108 21 4
27 95 11 176 -7 31 -13 67 -15 79 -2 11 -6 32 -11 45 -4 12 -8 32 -10 43 -6
43 -24 127 -29 136 -3 5 -10 32 -15 61 -4 29 -11 62 -15 73 -6 17 -3 16 15 -5
12 -14 33 -37 46 -52 13 -15 24 -31 24 -34 0 -4 11 -22 25 -40 14 -18 25 -36
25 -40 0 -3 16 -29 35 -55 19 -27 35 -52 35 -55 0 -18 88 -129 145 -183 104
-97 129 -102 140 -29 5 33 2 42 -32 80 -21 24 -50 60 -63 80 -14 21 -28 38
-32 38 -5 0 -8 6 -8 14 0 8 -4 16 -8 18 -14 5 -94 127 -124 188 -7 14 -17 30
-23 36 -9 9 -98 185 -131 259 -7 17 -24 55 -38 85 -28 63 -75 112 -128 134
-45 19 -43 19 -55 4z"/>
<path d="M4804 4378 c-34 -75 -25 -221 26 -423 21 -82 131 -418 145 -440 6
-11 20 -44 29 -72 10 -29 21 -55 26 -58 5 -3 14 -22 20 -43 21 -66 84 -183
115 -214 34 -33 97 -67 165 -88 25 -8 57 -23 71 -33 31 -22 77 -17 102 11 30
34 56 101 67 168 12 76 12 315 -1 354 -4 14 -10 45 -13 70 -10 103 -73 303
-131 415 -45 88 -143 235 -157 235 -4 0 -8 6 -8 13 -1 15 -111 98 -162 123
-47 22 -65 14 -89 -42 -22 -48 -21 -98 2 -172 6 -18 12 -43 13 -55 6 -48 180
-553 198 -573 23 -26 95 -60 106 -50 17 18 -1 109 -56 279 -33 100 -64 205
-70 232 -17 73 -26 155 -18 155 10 0 36 -27 36 -37 0 -4 11 -20 25 -35 14 -15
25 -33 25 -39 0 -7 6 -20 14 -28 15 -18 90 -242 102 -306 11 -57 12 -73 14
-241 1 -114 -3 -165 -15 -207 -18 -64 -32 -78 -77 -80 -29 -2 -36 4 -75 63
-24 36 -43 71 -43 78 0 6 -4 12 -10 12 -5 0 -10 5 -10 12 0 6 -11 34 -24 62
-31 67 -73 204 -136 444 -6 24 -9 46 -6 49 2 3 -2 22 -9 44 -8 21 -17 69 -20
106 -4 38 -9 72 -12 76 -3 5 -7 39 -10 75 -2 37 -9 81 -14 99 -11 33 -80 103
-103 103 -7 0 -21 -19 -32 -42z"/>
<path d="M4204 4254 c-9 -16 -28 -45 -41 -65 -13 -20 -28 -49 -33 -65 -5 -16
-20 -60 -34 -99 -14 -38 -26 -79 -26 -90 0 -12 -4 -25 -9 -30 -25 -28 -72
-353 -66 -456 6 -94 15 -149 25 -169 15 -29 12 -33 -19 -27 -30 6 -39 -3 -47
-50 -3 -16 -54 -173 -65 -198 -4 -11 -15 -42 -24 -70 -9 -27 -36 -92 -61 -143
-74 -150 -152 -195 -243 -140 -72 43 -110 101 -72 113 37 12 113 100 152 178
83 163 122 321 118 466 -4 121 -39 234 -103 329 -59 87 -71 100 -134 150 -48
38 -59 42 -109 42 -65 0 -113 -20 -160 -69 -33 -34 -70 -101 -79 -146 -18 -85
-25 -165 -25 -255 2 -174 12 -245 53 -378 11 -35 18 -66 15 -69 -3 -2 0 -21 8
-42 10 -31 10 -41 -1 -62 -23 -45 -1 -91 68 -141 43 -31 66 -56 84 -93 24 -51
75 -115 90 -115 5 0 21 -11 35 -24 43 -40 129 -78 185 -82 127 -9 219 60 293
218 73 155 86 216 85 388 l0 145 37 -37 c21 -20 54 -41 73 -48 31 -10 40 -9
69 9 35 22 111 99 172 176 22 28 55 66 73 86 18 20 39 45 47 55 23 31 37 4 36
-69 0 -76 -3 -91 -42 -212 -16 -49 -29 -99 -29 -110 0 -12 -4 -25 -9 -30 -6
-6 -11 -45 -12 -87 -2 -70 0 -80 24 -108 l27 -31 51 47 c100 94 172 307 172
509 0 55 -3 120 -7 145 -4 25 -9 52 -10 61 -3 22 -55 110 -78 132 -29 28 -70
37 -104 22 -16 -7 -83 -68 -149 -135 -125 -127 -230 -209 -246 -193 -17 17
-39 175 -33 232 11 106 63 236 98 245 21 5 86 92 86 115 0 7 10 31 22 54 12
23 32 78 44 122 23 79 23 80 4 100 -15 14 -37 20 -89 23 -67 4 -70 3 -87 -24z
m-718 -500 c19 -9 34 -23 34 -30 0 -8 4 -14 9 -14 5 0 18 -24 28 -52 13 -41
17 -82 17 -178 -1 -126 -15 -201 -69 -351 -17 -48 -85 -129 -109 -129 -8 0
-23 15 -34 33 -23 38 -56 136 -49 144 3 3 1 17 -4 32 -17 44 -22 81 -25 212
-4 128 0 151 39 242 24 54 77 107 108 107 12 0 36 -7 55 -16z"/>
<path d="M950 3867 c0 -2 9 -30 20 -62 11 -32 20 -68 20 -79 0 -28 49 -177 65
-196 7 -8 29 -67 50 -130 20 -63 43 -124 50 -135 6 -11 27 -65 45 -120 18 -55
40 -113 50 -130 18 -31 91 -255 109 -335 9 -44 9 -45 -57 -145 -37 -55 -71
-105 -77 -111 -5 -7 -30 -35 -55 -63 -25 -29 -64 -73 -87 -99 -24 -26 -43 -54
-43 -62 0 -31 119 -140 152 -140 33 0 93 85 188 263 17 31 36 57 43 57 13 0
67 -149 67 -185 0 -10 11 -55 24 -99 14 -45 34 -117 46 -161 70 -263 89 -302
142 -291 49 10 60 29 60 104 0 37 -8 87 -16 111 -9 24 -14 46 -12 48 5 5 -140
441 -152 456 -5 7 -21 48 -35 91 l-27 79 92 94 c50 51 95 93 100 93 4 0 22
-19 39 -42 44 -63 71 -98 97 -129 12 -15 22 -30 22 -33 0 -3 6 -14 14 -23 8
-10 36 -47 63 -83 26 -36 53 -71 60 -78 7 -7 20 -26 30 -42 9 -17 21 -30 25
-30 4 0 8 -4 8 -10 0 -9 108 -157 137 -188 7 -7 20 -26 30 -42 9 -16 24 -32
32 -36 20 -8 122 -33 137 -34 10 0 -87 157 -105 170 -4 3 -18 21 -31 40 -13
19 -27 37 -30 40 -3 3 -17 21 -30 40 -13 19 -27 37 -30 40 -14 12 -160 230
-160 240 0 5 -4 10 -10 10 -5 0 -10 6 -10 14 0 8 -4 16 -8 18 -7 2 -69 91
-117 167 -5 9 -12 18 -15 21 -13 11 -50 69 -50 77 0 4 15 24 33 43 46 48 55
68 53 121 -2 32 -10 56 -30 82 l-28 36 -40 -22 c-21 -12 -57 -37 -78 -55 l-39
-32 -28 36 c-24 31 -57 72 -106 134 -7 8 -23 31 -37 50 -14 19 -30 42 -37 50
-7 8 -38 50 -70 92 -32 42 -98 129 -147 194 -49 64 -104 147 -122 183 -37 75
-53 92 -104 108 -62 20 -80 24 -80 20z m346 -568 c8 -8 14 -19 14 -23 0 -4 9
-16 20 -28 11 -12 20 -28 20 -35 0 -7 4 -13 8 -13 5 0 46 -51 92 -112 46 -62
97 -126 112 -142 15 -17 28 -33 28 -37 0 -13 -102 -144 -114 -147 -7 -1 -36
72 -70 175 -32 98 -66 196 -77 218 -26 56 -69 185 -68 204 0 9 5 3 11 -14 6
-16 17 -37 24 -46z"/>
<path d="M2540 3663 c0 -13 24 -71 70 -168 38 -80 70 -154 70 -161 0 -4 12
-32 26 -63 14 -31 34 -74 44 -96 10 -22 22 -52 25 -67 4 -16 11 -28 15 -28 5
0 23 -44 41 -97 17 -54 35 -100 39 -103 16 -11 70 -211 76 -282 5 -53 -7 -68
-29 -35 -8 12 -25 33 -37 47 -12 14 -29 37 -38 53 -9 15 -20 27 -24 27 -4 0
-8 6 -8 14 0 7 -14 30 -30 52 -17 21 -38 53 -47 71 -8 18 -19 33 -24 33 -5 0
-9 6 -9 14 0 7 -6 19 -14 25 -8 7 -21 26 -30 44 -26 52 -151 241 -186 282 -10
11 -20 37 -23 57 -11 73 -34 104 -96 132 -32 14 -61 26 -65 26 -11 0 -6 -56 8
-96 7 -22 11 -44 9 -51 -2 -7 1 -21 7 -33 6 -11 15 -44 21 -73 5 -29 13 -72
19 -97 11 -47 17 -80 45 -220 29 -150 32 -170 41 -297 5 -61 3 -93 -3 -93 -6
0 -26 30 -44 68 -19 37 -37 69 -41 70 -5 2 -8 9 -8 15 0 6 -9 31 -21 56 -12
25 -32 69 -44 96 -54 116 -75 164 -75 171 0 9 -45 108 -70 156 -11 20 -20 43
-20 51 0 8 -6 20 -14 26 -8 7 -17 23 -20 37 -8 31 -67 123 -97 151 -13 12 -36
26 -51 32 -27 10 -58 6 -58 -8 0 -14 54 -167 65 -186 7 -11 21 -45 30 -75 10
-30 23 -62 30 -70 7 -8 16 -26 20 -40 7 -23 27 -69 104 -231 17 -36 31 -71 31
-77 0 -7 4 -12 9 -12 4 0 14 -20 21 -45 7 -25 16 -45 21 -45 4 0 11 -10 14
-22 4 -13 23 -57 42 -98 125 -265 128 -270 207 -324 60 -40 105 -34 134 18 22
41 27 249 7 306 -7 21 -11 40 -9 43 3 2 -1 17 -7 33 -6 16 -19 80 -30 142 -10
62 -21 117 -24 122 -3 6 -8 29 -11 52 l-5 43 26 -44 c14 -23 25 -47 25 -52 0
-5 5 -9 10 -9 6 0 10 -5 10 -11 0 -13 159 -230 222 -304 89 -104 204 -214 231
-220 39 -10 74 2 94 31 29 45 5 172 -89 454 -44 135 -86 252 -93 260 -7 8 -18
33 -25 55 -7 22 -18 49 -25 60 -7 11 -21 46 -31 78 -10 31 -21 57 -25 57 -4 0
-10 13 -14 29 -3 16 -13 35 -21 42 -8 6 -14 16 -14 21 0 9 -31 80 -68 158 -23
49 -61 99 -86 112 -12 7 -40 15 -63 18 -33 5 -43 4 -43 -7z"/>
<path d="M5008 946 c-1170 -391 -2130 -714 -2133 -718 -7 -7 197 -61 355 -92
271 -55 431 -70 755 -70 351 -1 549 19 855 85 856 185 1637 662 2196 1339 126
153 138 170 117 169 -10 0 -975 -321 -2145 -713z"/>
</g>
</svg>
